<svg width="20" height="20" viewBox="0 0 20 20" fill="none" xmlns="http://www.w3.org/2000/svg">
<g clip-path="url(#clip0_13_15982)">
<path d="M14.5833 1.66668H5.41667C4.97873 1.6633 4.55734 1.83375 4.2449 2.14063C3.93246 2.44751 3.75448 2.86578 3.75 3.30371V16.6963C3.75448 17.1342 3.93246 17.5525 4.2449 17.8594C4.55734 18.1663 4.97873 18.3367 5.41667 18.3333H14.5833C15.0213 18.3367 15.4427 18.1663 15.7551 17.8594C16.0675 17.5525 16.2455 17.1342 16.25 16.6963V3.30371C16.2455 2.86578 16.0675 2.44751 15.7551 2.14063C15.4427 1.83375 15.0213 1.6633 14.5833 1.66668ZM8.04891 4.89647C8.14672 4.58436 8.31923 4.30084 8.55147 4.07052C8.78371 3.8402 9.06864 3.67005 9.38155 3.57482C9.69446 3.4796 10.0259 3.46218 10.347 3.52409C10.6682 3.58599 10.9694 3.72535 11.2245 3.93006C11.4796 4.13477 11.6809 4.39864 11.8109 4.69878C11.9409 4.99892 11.9956 5.32625 11.9704 5.65235C11.9452 5.97846 11.8408 6.29348 11.6663 6.57009C11.4917 6.84669 11.2523 7.07651 10.9688 7.23959C10.8244 7.32066 10.7039 7.43822 10.6193 7.5805C10.5347 7.72278 10.4889 7.88479 10.4866 8.05032V8.1024C10.4866 8.24054 10.4317 8.37301 10.334 8.47069C10.2363 8.56836 10.1039 8.62324 9.96573 8.62324C9.8276 8.62324 9.69512 8.56836 9.59744 8.47069C9.49977 8.37301 9.4449 8.24054 9.4449 8.1024V8.05032C9.4475 7.70195 9.54154 7.36037 9.7176 7.05975C9.89365 6.75913 10.1456 6.51 10.4481 6.3373C10.6311 6.23284 10.7749 6.07141 10.8576 5.87762C10.9403 5.68383 10.9574 5.46831 10.9062 5.26392C10.8651 5.09266 10.7775 4.9361 10.6529 4.81156C10.5284 4.68703 10.3718 4.59935 10.2006 4.55824C9.99699 4.50751 9.78243 4.52435 9.58925 4.60623C9.39608 4.6881 9.23476 4.83057 9.12964 5.01214C9.09348 5.07367 9.06447 5.13913 9.04318 5.20725C9.00196 5.33911 8.91006 5.4492 8.78768 5.5133C8.66529 5.5774 8.52246 5.59026 8.3906 5.54905C8.25874 5.50783 8.14865 5.41593 8.08455 5.29354C8.02045 5.17116 8.00759 5.02833 8.0488 4.89647H8.04891ZM10.4844 9.73959C10.4858 9.77463 10.4823 9.8097 10.474 9.84376C10.4678 9.87564 10.459 9.90699 10.4479 9.93751C10.4323 9.96876 10.4167 10 10.401 10.0313C10.38 10.0585 10.3573 10.0846 10.3333 10.1094C10.2346 10.2061 10.1018 10.2604 9.96354 10.2604C9.89522 10.2622 9.82742 10.248 9.76562 10.2188C9.70349 10.1935 9.64688 10.1563 9.59896 10.1094C9.57494 10.0846 9.55234 10.0585 9.53125 10.0313C9.51573 10 9.5001 9.96876 9.48438 9.93751L9.45312 9.84376C9.44737 9.8093 9.44389 9.77451 9.44271 9.73959C9.44424 9.6006 9.50036 9.46778 9.59896 9.3698C9.69863 9.27684 9.82985 9.22514 9.96615 9.22514C10.1024 9.22514 10.2337 9.27684 10.3333 9.3698C10.4305 9.4683 10.4848 9.60122 10.4844 9.73959ZM13.6458 16.25H6.35417C6.21603 16.25 6.08356 16.1951 5.98588 16.0975C5.88821 15.9998 5.83333 15.8673 5.83333 15.7292C5.83333 15.591 5.88821 15.4586 5.98588 15.3609C6.08356 15.2632 6.21603 15.2083 6.35417 15.2083H13.6458C13.784 15.2083 13.9164 15.2632 14.0141 15.3609C14.1118 15.4586 14.1667 15.591 14.1667 15.7292C14.1667 15.8673 14.1118 15.9998 14.0141 16.0975C13.9164 16.1951 13.784 16.25 13.6458 16.25ZM13.6458 14.1667H6.35417C6.21603 14.1667 6.08356 14.1118 5.98588 14.0141C5.88821 13.9165 5.83333 13.784 5.83333 13.6458C5.83333 13.5077 5.88821 13.3752 5.98588 13.2776C6.08356 13.1799 6.21603 13.125 6.35417 13.125H13.6458C13.784 13.125 13.9164 13.1799 14.0141 13.2776C14.1118 13.3752 14.1667 13.5077 14.1667 13.6458C14.1667 13.784 14.1118 13.9165 14.0141 14.0141C13.9164 14.1118 13.784 14.1667 13.6458 14.1667ZM13.6458 12.0833H6.35417C6.21603 12.0833 6.08356 12.0285 5.98588 11.9308C5.88821 11.8331 5.83333 11.7006 5.83333 11.5625C5.83333 11.4244 5.88821 11.2919 5.98588 11.1942C6.08356 11.0965 6.21603 11.0417 6.35417 11.0417H13.6458C13.784 11.0417 13.9164 11.0965 14.0141 11.1942C14.1118 11.2919 14.1667 11.4244 14.1667 11.5625C14.1667 11.7006 14.1118 11.8331 14.0141 11.9308C13.9164 12.0285 13.784 12.0833 13.6458 12.0833Z" fill="#131CA2"/>
</g>
<defs>
<clipPath id="clip0_13_15982">
<rect width="16.6667" height="16.6667" fill="white" transform="translate(1.66699 1.66667)"/>
</clipPath>
</defs>
</svg>
